<svg width="32" height="32" viewBox="0 0 32 32" fill="none" xmlns="http://www.w3.org/2000/svg">
<path d="M7 14.5H27C27.2652 14.5 27.5196 15.1054 27.7071 15.2929C27.8946 15.4804 28 15.7348 28 16C28 16.2652 27.8946 16.5196 27.7071 16.7071C27.5196 16.8946 27.2652 17.5 27 17.5H7C6.73478 17.5 6.48043 16.8946 6.29289 16.7071C6.10536 16.5196 6 16.2652 6 16C6 15.7348 6.10536 15.4804 6.29289 15.2929C6.48043 15.1054 6.73478 14.5 7 14.5Z" fill="#005CB4"/>
<path d="M7.7827 15.9993L15.8923 24.1069C16.08 24.2947 16.0011 24.7338 16.0011 24.9993C16.0011 25.2649 15.8956 25.5195 15.7078 25.7073C15.5201 25.8951 15.2654 26.0006 14.9998 26.0006C14.7343 26.0006 14.4796 25.8951 14.2918 25.7073L5.29183 16.7073C5.19871 16.6144 5.12482 16.5041 5.07441 16.3826C5.024 16.2611 4.99805 16.1308 4.99805 15.9993C4.99805 15.8678 5.024 15.7375 5.07441 15.616C5.12482 15.4946 5.19871 15.3842 5.29183 15.2913L14.2918 6.29131C14.4796 6.10354 14.7343 5.99805 14.9998 5.99805C15.2654 5.99805 15.5201 6.10354 15.7078 6.29131C15.8956 6.47908 16.0011 6.73376 16.0011 6.99931C16.0011 7.26486 16.08 7.70392 15.8923 7.8917L7.7827 15.9993Z" fill="#005CB4"/>
</svg>
