<svg width="24" height="24" viewBox="0 0 24 24" fill="none" xmlns="http://www.w3.org/2000/svg">
<path d="M16.67 4H15V2H9V4H7.33C6.97726 4 6.63897 4.14012 6.38955 4.38955C6.14012 4.63897 6 4.97726 6 5.33V20.67C6 21.4 6.6 22 7.33 22H16.67C17.0227 22 17.361 21.8599 17.6105 21.6105C17.8599 21.361 18 21.0227 18 20.67V5.33C18 4.6 17.4 4 16.67 4Z" fill="#0989C0"/>
<g clip-path="url(#clip0_3722_865)">
<path d="M10.4969 11.505C10.4968 11.5051 10.4968 11.5051 10.4969 11.505C10.4969 11.505 10.4969 11.505 10.4969 11.505ZM13.4969 14.505C13.4968 14.5051 13.4968 14.5051 13.4969 14.505L13.4969 14.505ZM9.44612 16.0228L9.79967 16.3764L10.1532 16.0228L11.8407 14.3353C11.8356 14.3902 11.833 14.446 11.833 14.5026C11.833 14.9574 11.9995 15.3596 12.3211 15.6812C12.6427 16.0027 13.0449 16.1693 13.4997 16.1693C13.9545 16.1693 14.3567 16.0027 14.6782 15.6812C14.9998 15.3596 15.1663 14.9574 15.1663 14.5026C15.1663 14.0478 14.9998 13.6456 14.6782 13.3241C14.3567 13.0025 13.9545 12.8359 13.4997 12.8359C13.4431 12.8359 13.3873 12.8385 13.3324 12.8437L15.0199 11.1562L15.3734 10.8026L15.0199 10.4491L14.5532 9.98238L14.1997 9.62883L13.8461 9.98238L12.1586 11.6699C12.1638 11.615 12.1663 11.5592 12.1663 11.5026C12.1663 11.0478 11.9998 10.6456 11.6782 10.3241C11.3567 10.0025 10.9545 9.83594 10.4997 9.83594C10.0449 9.83594 9.6427 10.0025 9.32112 10.3241C8.99954 10.6456 8.83301 11.0478 8.83301 11.5026C8.83301 11.9574 8.99954 12.3596 9.32112 12.6812C9.6427 13.0027 10.0449 13.1693 10.4997 13.1693C10.5563 13.1693 10.612 13.1667 10.6669 13.1616L8.97945 14.8491L8.6259 15.2026L8.97945 15.5562L9.44612 16.0228Z" fill="#0989C0" stroke="white"/>
</g>
<defs>
<clipPath id="clip0_3722_865">
<rect width="8" height="8" fill="white" transform="translate(8 9)"/>
</clipPath>
</defs>
</svg>
