<svg width="24" height="24" viewBox="0 0 24 24" fill="none" xmlns="http://www.w3.org/2000/svg">
<path d="M16.67 4H15V2H9V4H7.33C6.97726 4 6.63897 4.14012 6.38955 4.38955C6.14012 4.63897 6 4.97726 6 5.33V20.67C6 21.4 6.6 22 7.33 22H16.67C17.0227 22 17.361 21.8599 17.6105 21.6105C17.8599 21.361 18 21.0227 18 20.67V5.33C18 4.6 17.4 4 16.67 4Z" fill="#0989C0"/>
<path d="M11.8764 12.9449L11.999 12.9129L12.1255 12.9454C12.2434 12.9758 12.3463 13.0481 12.4147 13.1489C12.4831 13.2496 12.5123 13.3719 12.497 13.4927C12.4817 13.6135 12.4228 13.7246 12.3313 13.805C12.24 13.8854 12.1226 13.9297 12.001 13.9297C11.8796 13.9292 11.7625 13.8846 11.6715 13.8043C11.5804 13.7238 11.5217 13.6129 11.5064 13.4923C11.4911 13.3717 11.5202 13.2496 11.5883 13.1489C11.6564 13.0482 11.7588 12.9757 11.8764 12.9449ZM10.5 10.6797V11.7525C10.2134 12.0088 9.99611 12.3355 9.87083 12.7022C9.71597 13.1554 9.70981 13.6463 9.85325 14.1034C9.9967 14.5604 10.2823 14.9597 10.6684 15.2432C11.0545 15.5267 11.521 15.6796 12 15.6796C12.479 15.6796 12.9455 15.5267 13.3316 15.2432C13.7177 14.9597 14.0033 14.5604 14.1467 14.1034C14.2902 13.6463 14.284 13.1554 14.1292 12.7022C14.0039 12.3355 13.7866 12.0088 13.5 11.7525V10.6797C13.5 10.2819 13.342 9.90033 13.0607 9.61903C12.7794 9.33772 12.3978 9.17969 12 9.17969C11.6022 9.17969 11.2206 9.33772 10.9393 9.61903C10.658 9.90033 10.5 10.2819 10.5 10.6797Z" fill="#0989C0" stroke="white"/>
</svg>
