<svg width="24" height="24" viewBox="0 0 24 24" fill="none" xmlns="http://www.w3.org/2000/svg">
<path fill-rule="evenodd" clip-rule="evenodd" d="M4.955 3.25H5.045C5.478 3.25 5.875 3.25 6.197 3.293C6.553 3.341 6.928 3.453 7.237 3.763C7.546 4.073 7.659 4.447 7.707 4.803C7.746 5.093 7.75 5.443 7.75 5.823C7.95001 5.40027 8.25453 5.03553 8.63476 4.76326C9.01499 4.491 9.45838 4.32019 9.923 4.267C10.08 4.25 10.243 4.25 10.453 4.25H13.546C13.756 4.25 13.92 4.25 14.076 4.268C14.5408 4.32103 14.9844 4.49176 15.3648 4.76404C15.7452 5.03631 16.0499 5.40114 16.25 5.824C16.25 5.442 16.254 5.093 16.293 4.803C16.341 4.447 16.453 4.072 16.763 3.763C17.073 3.454 17.447 3.341 17.803 3.293C18.126 3.25 18.523 3.25 18.955 3.25H19.045C19.478 3.25 19.875 3.25 20.197 3.293C20.553 3.341 20.928 3.453 21.237 3.763C21.546 4.073 21.659 4.447 21.707 4.803C21.75 5.126 21.75 5.523 21.75 5.955V7.45C21.9453 7.66133 22.1153 7.89333 22.26 8.146C22.53 8.623 22.644 9.146 22.698 9.746C22.75 10.326 22.75 11.046 22.75 11.94V14.055C22.75 15.422 22.75 16.525 22.634 17.392C22.512 18.292 22.254 19.05 21.652 19.652C21.05 20.254 20.292 20.512 19.392 20.634C18.525 20.75 17.422 20.75 16.055 20.75H7.945C6.578 20.75 5.475 20.75 4.608 20.634C3.708 20.512 2.95 20.254 2.348 19.652C1.746 19.05 1.488 18.292 1.367 17.392C1.25 16.525 1.25 15.422 1.25 14.055V11.94C1.25 11.047 1.25 10.327 1.302 9.746C1.356 9.146 1.469 8.623 1.74 8.146C1.88302 7.89539 2.05413 7.66188 2.25 7.45V5.956C2.25 5.523 2.25 5.126 2.293 4.804C2.341 4.448 2.453 4.073 2.763 3.764C3.073 3.455 3.447 3.342 3.803 3.294C4.126 3.251 4.523 3.25 4.955 3.25ZM3.75 6.482C4.06 6.387 4.39 6.334 4.746 6.302C5.169 6.264 5.666 6.254 6.25 6.251V6C6.25 5.507 6.248 5.213 6.22 5.003C6.21376 4.94242 6.19964 4.88292 6.178 4.826L6.177 4.823L6.174 4.822L6.164 4.817C6.11005 4.79789 6.05397 4.78546 5.997 4.78C5.787 4.752 5.493 4.75 5 4.75C4.507 4.75 4.213 4.752 4.003 4.78C3.94242 4.78624 3.88292 4.80036 3.826 4.822L3.823 4.823L3.822 4.826L3.817 4.836C3.79789 4.88994 3.78546 4.94603 3.78 5.003C3.752 5.213 3.75 5.507 3.75 6V6.482ZM6.975 7.75C6.039 7.75 5.385 7.75 4.879 7.796C4.383 7.84 4.101 7.923 3.888 8.044C3.53581 8.24422 3.24422 8.53581 3.044 8.888C2.924 9.101 2.84 9.383 2.796 9.879C2.751 10.386 2.75 11.039 2.75 11.975V14C2.75 15.435 2.752 16.436 2.853 17.192C2.952 17.926 3.133 18.314 3.409 18.591C3.686 18.868 4.074 19.048 4.809 19.147C5.563 19.248 6.565 19.25 8 19.25H16C17.435 19.25 18.436 19.248 19.192 19.147C19.926 19.048 20.314 18.867 20.591 18.591C20.868 18.314 21.048 17.926 21.147 17.191C21.248 16.436 21.25 15.435 21.25 14V11.975C21.25 11.039 21.25 10.385 21.204 9.879C21.16 9.383 21.077 9.101 20.956 8.888C20.9269 8.83664 20.8955 8.78659 20.862 8.738C20.7131 8.71027 20.5761 8.63811 20.469 8.53101C20.3619 8.42391 20.2897 8.2869 20.262 8.138C20.2134 8.10447 20.1634 8.0731 20.112 8.044C19.9 7.924 19.617 7.84 19.121 7.796C18.614 7.751 17.961 7.75 17.025 7.75H16.721C16.623 7.75 16.52 7.75 16.419 7.739C16.1632 7.70972 15.917 7.62436 15.698 7.48902C15.479 7.35367 15.2926 7.17168 15.152 6.956C15.0948 6.86324 15.0427 6.76743 14.996 6.669C14.9402 6.54867 14.8785 6.43119 14.811 6.317C14.7105 6.163 14.5774 6.03305 14.4209 5.93643C14.2645 5.83981 14.0887 5.77888 13.906 5.758C13.7739 5.74876 13.6414 5.74609 13.509 5.75H10.491C10.227 5.75 10.155 5.751 10.094 5.758C9.91124 5.779 9.73536 5.84007 9.57893 5.93688C9.42249 6.03368 9.28935 6.16381 9.189 6.318C9.12159 6.43154 9.05985 6.54835 9.004 6.668L8.994 6.691C8.95 6.778 8.904 6.871 8.848 6.956C8.70741 7.17168 8.52096 7.35367 8.30196 7.48902C8.08295 7.62436 7.83678 7.70972 7.581 7.739C7.481 7.75 7.377 7.75 7.279 7.75H6.975ZM17.75 6.251C18.334 6.254 18.831 6.264 19.254 6.302C19.611 6.334 19.941 6.387 20.25 6.482V6C20.25 5.507 20.248 5.213 20.22 5.003C20.2138 4.94242 20.1996 4.88292 20.178 4.826L20.177 4.823L20.174 4.822L20.164 4.817C20.1101 4.79789 20.054 4.78546 19.997 4.78C19.787 4.752 19.493 4.75 19 4.75C18.507 4.75 18.213 4.752 18.003 4.78C17.9424 4.78624 17.8829 4.80036 17.826 4.822L17.823 4.823L17.822 4.826L17.817 4.836C17.7979 4.88994 17.7855 4.94603 17.78 5.003C17.752 5.213 17.75 5.507 17.75 6V6.251ZM16.5 11.25C16.6989 11.25 16.8897 11.329 17.0303 11.4697C17.171 11.6103 17.25 11.8011 17.25 12V12.75H18C18.1989 12.75 18.3897 12.829 18.5303 12.9697C18.671 13.1103 18.75 13.3011 18.75 13.5C18.75 13.6989 18.671 13.8897 18.5303 14.0303C18.3897 14.171 18.1989 14.25 18 14.25H17.25V15C17.25 15.1989 17.171 15.3897 17.0303 15.5303C16.8897 15.671 16.6989 15.75 16.5 15.75C16.3011 15.75 16.1103 15.671 15.9697 15.5303C15.829 15.3897 15.75 15.1989 15.75 15V14.25H15C14.8011 14.25 14.6103 14.171 14.4697 14.0303C14.329 13.8897 14.25 13.6989 14.25 13.5C14.25 13.3011 14.329 13.1103 14.4697 12.9697C14.6103 12.829 14.8011 12.75 15 12.75H15.75V12C15.75 11.8011 15.829 11.6103 15.9697 11.4697C16.1103 11.329 16.3011 11.25 16.5 11.25ZM5.25 13.5C5.25 13.3011 5.32902 13.1103 5.46967 12.9697C5.61032 12.829 5.80109 12.75 6 12.75H9C9.19891 12.75 9.38968 12.829 9.53033 12.9697C9.67098 13.1103 9.75 13.3011 9.75 13.5C9.75 13.6989 9.67098 13.8897 9.53033 14.0303C9.38968 14.171 9.19891 14.25 9 14.25H6C5.80109 14.25 5.61032 14.171 5.46967 14.0303C5.32902 13.8897 5.25 13.6989 5.25 13.5Z" fill="black"/>
</svg>
