<svg width="100" height="36" viewBox="0 0 100 36" fill="none" xmlns="http://www.w3.org/2000/svg">
<path d="M1.59163 0H11.7916C11.8976 0 11.9934 0.0630272 12.0354 0.160333L17.673 13.2716L23.3107 0.160333C23.3526 0.0630272 23.4484 0 23.5544 0H33.7544C33.9909 0 34.1071 0.288469 33.9404 0.456187C32.0539 2.35412 30.3539 4.13443 28.8127 5.74843C23.6775 11.1263 20.3053 14.7147 17.673 14.5987C15.0406 14.7147 11.6685 11.1263 6.53329 5.74844C4.9921 4.13444 3.2921 2.35412 1.40562 0.456187C1.23892 0.288469 1.35516 0 1.59163 0Z" fill="black"/>
<path d="M1.59163 35.5709H11.7916C11.8976 35.5709 11.9934 35.5079 12.0354 35.4106L17.673 22.2994L23.3107 35.4106C23.3526 35.5079 23.4484 35.5709 23.5544 35.5709H33.7544C33.9909 35.5709 34.1071 35.2825 33.9404 35.1147C32.0539 33.2168 30.3539 31.4365 28.8127 29.8225C23.6775 24.4447 20.3053 20.8563 17.673 20.9722C15.0406 20.8563 11.6685 24.4447 6.53329 29.8225C4.9921 31.4365 3.2921 33.2168 1.40562 35.1147C1.23892 35.2825 1.35516 35.5709 1.59163 35.5709Z" fill="black"/>
<path d="M35.5704 1.83633V12.0363C35.5704 12.1423 35.5074 12.2381 35.4101 12.2801L22.2988 17.9177L35.4101 23.5553C35.5074 23.5973 35.5704 23.6931 35.5704 23.7991V33.9991C35.5704 34.2356 35.2819 34.3518 35.1142 34.1851C33.2163 32.2986 31.436 30.5986 29.822 29.0574C24.4441 23.9222 20.8557 20.55 20.9717 17.9177C20.8557 15.2853 24.4441 11.9132 29.822 6.77799C31.436 5.23679 33.2163 3.53679 35.1142 1.65032C35.2819 1.48361 35.5704 1.59985 35.5704 1.83633Z" fill="black"/>
<path d="M1.40588e-06 1.83633L9.60022e-07 12.0363C9.5539e-07 12.1423 0.0630282 12.2381 0.160334 12.2801L13.2716 17.9177L0.160334 23.5553C0.0630277 23.5973 4.50487e-07 23.6931 4.45856e-07 23.7991L0 33.9991C-1.03366e-08 34.2356 0.288469 34.3518 0.456187 34.1851C2.35412 32.2986 4.13443 30.5986 5.74843 29.0574C11.1263 23.9222 14.7147 20.55 14.5987 17.9177C14.7147 15.2853 11.1263 11.9132 5.74844 6.77799C4.13444 5.23679 2.35413 3.53679 0.456189 1.65032C0.28847 1.48361 1.41622e-06 1.59985 1.40588e-06 1.83633Z" fill="black"/>
<path d="M19.9074 17.7632C19.9074 18.9359 18.9567 19.8866 17.7839 19.8866C16.6112 19.8866 15.6605 18.9359 15.6605 17.7632C15.6605 16.5904 16.6112 15.6397 17.7839 15.6397C18.9567 15.6397 19.9074 16.5904 19.9074 17.7632Z" fill="black"/>
<path d="M53.8398 1.58594H61.3303V25.5464C61.3303 29.9685 59.8864 34.3455 51.8544 34.3455C48.9214 34.3455 42.4688 33.3979 42.4688 26.494V21.3048H49.9592V25.9526C49.9592 27.3514 49.9141 29.2014 51.8995 29.2014C53.885 29.2014 53.8398 27.3514 53.8398 25.9526V1.58594Z" fill="black"/>
<path d="M73.9589 33.7138H66.8294V7.90321H73.9589V33.7138ZM73.9589 6.1434H66.8294V1.58594H73.9589V6.1434Z" fill="black"/>
<path d="M78.8819 33.7138V1.58594H89.2603L94.0433 24.9598H94.1336V1.58594H99.9996V33.7138H90.3884L84.8382 6.86537H84.7479V33.7138H78.8819Z" fill="black"/>
</svg>
