<svg width="24" height="24" viewBox="0 0 24 24" fill="none" xmlns="http://www.w3.org/2000/svg">
<path d="M14 10.5V8M10 10.5V8M12 22C17.523 22 22 17.523 22 12C22 6.477 17.523 2 12 2C6.477 2 2 6.477 2 12C2 17.523 6.477 22 12 22Z" stroke="#0989C0" stroke-width="2" stroke-linecap="round" stroke-linejoin="round"/>
<path d="M12 16C13.0609 16 14.0783 15.5786 14.8284 14.8284C15.5786 14.0783 16 13.0609 16 12V10.5H8V12C8 13.0609 8.42143 14.0783 9.17157 14.8284C9.92172 15.5786 10.9391 16 12 16Z" fill="#0989C0" stroke="#0989C0" stroke-width="2" stroke-linecap="round" stroke-linejoin="round"/>
<path d="M12 22V16" stroke="#0989C0" stroke-width="2" stroke-linecap="round" stroke-linejoin="round"/>
</svg>
