<svg width="24" height="24" viewBox="0 0 24 24" fill="none" xmlns="http://www.w3.org/2000/svg">
<g clip-path="url(#clip0_3463_1221)">
<path d="M22.0002 12.5C22.0002 12.5 24.0002 14.67 24.0002 16C24.0002 16.5304 23.7895 17.0391 23.4144 17.4142C23.0394 17.7893 22.5306 18 22.0002 18C21.4698 18 20.9611 17.7893 20.586 17.4142C20.2109 17.0391 20.0002 16.5304 20.0002 16C20.0002 14.67 22.0002 12.5 22.0002 12.5ZM6.00022 6H10.0002C10.2654 6 10.5198 6.10536 10.7073 6.29289C10.8949 6.48043 11.0002 6.73478 11.0002 7C11.0002 7.26522 10.8949 7.51957 10.7073 7.70711C10.5198 7.89464 10.2654 8 10.0002 8H9.00021V10H11.0002C11.7402 10 12.3902 10.4 12.7302 11L19.2402 7.24L22.5002 9.13C23.0002 9.4 23.1402 10 22.8702 10.5C22.5902 10.97 22.0002 11.14 21.5002 10.86L19.4002 9.65L15.7502 15.97C15.4102 16.58 14.7502 17 14.0002 17H5.00022C4.46978 17 3.96107 16.7893 3.586 16.4142C3.21093 16.0391 3.00021 15.5304 3.00021 15V12C3.00021 11.4696 3.21093 10.9609 3.586 10.5858C3.96107 10.2107 4.46978 10 5.00022 10H7.00022V8H6.00022C5.735 8 5.48064 7.89464 5.29311 7.70711C5.10557 7.51957 5.00022 7.26522 5.00022 7C5.00022 6.73478 5.10557 6.48043 5.29311 6.29289C5.48064 6.10536 5.735 6 6.00022 6ZM5.00022 12V15H14.0002L16.0602 11.43L12.6002 13.43L11.6902 12H5.00022ZM0.380215 9.21L2.09021 7.5C2.50021 7.11 3.11021 7.11 3.50021 7.5C3.89021 7.89 3.89021 8.5 3.50021 8.91L1.79021 10.62C1.40021 11 0.770215 11 0.380215 10.62C0.000214845 10.23 0.000214845 9.6 0.380215 9.21Z" fill="black"/>
</g>
<defs>
<clipPath id="clip0_3463_1221">
<rect width="24" height="24" fill="white"/>
</clipPath>
</defs>
</svg>
