<svg width="20" height="20" viewBox="0 0 20 20" fill="none" xmlns="http://www.w3.org/2000/svg">
<circle cx="10" cy="10" r="9.5" fill="white" stroke="#F0F0F0"/>
<path d="M8.63651 5.84362C8.5914 5.79589 8.55614 5.73974 8.53273 5.67837C8.50932 5.61701 8.49823 5.55163 8.50009 5.48598C8.50194 5.42033 8.51671 5.35569 8.54355 5.29575C8.57039 5.2358 8.60878 5.18173 8.65651 5.13662C8.70425 5.09152 8.7604 5.05625 8.82176 5.03284C8.88313 5.00943 8.9485 4.99834 9.01415 5.0002C9.0798 5.00206 9.14445 5.01683 9.20439 5.04367C9.26433 5.07051 9.3184 5.10889 9.36351 5.15662L13.6135 9.65662C13.7013 9.74946 13.7502 9.87237 13.7502 10.0001C13.7502 10.1279 13.7013 10.2508 13.6135 10.3436L9.36351 14.8441C9.3187 14.8929 9.26464 14.9323 9.20448 14.96C9.14432 14.9877 9.07925 15.0032 9.01305 15.0056C8.94685 15.0079 8.88085 14.9971 8.81887 14.9737C8.75689 14.9503 8.70017 14.9149 8.65201 14.8694C8.60385 14.8239 8.56521 14.7693 8.53833 14.7088C8.51144 14.6483 8.49686 14.583 8.49541 14.5168C8.49397 14.4505 8.5057 14.3847 8.52992 14.323C8.55415 14.2614 8.59038 14.2052 8.63651 14.1576L12.5625 10.0001L8.63651 5.84362Z" fill="#353535"/>
</svg>
