<svg width="32" height="32" viewBox="0 0 32 32" fill="none" xmlns="http://www.w3.org/2000/svg">
<path d="M31.0001 15.9995C30.9999 15.4692 30.7892 14.9605 30.4141 14.5856L24.6211 8.79255L27.4891 5.92455C27.9143 6.03854 28.3653 6.00901 28.7721 5.84055C29.1789 5.67209 29.5187 5.37411 29.7389 4.99282C29.959 4.61153 30.0472 4.16825 29.9898 3.73173C29.9323 3.29522 29.7324 2.88986 29.4211 2.57853C29.1098 2.2672 28.7044 2.06731 28.2679 2.00985C27.8314 1.95239 27.3881 2.04058 27.0068 2.26074C26.6255 2.48089 26.3275 2.82072 26.1591 3.2275C25.9906 3.63428 25.9611 4.08528 26.0751 4.51055L23.2071 7.37955L17.4141 1.58655C17.039 1.21161 16.5304 1.00098 16.0001 1.00098C15.4697 1.00098 14.9611 1.21161 14.5861 1.58655L8.79306 7.37855L5.92506 4.50955C6.03905 4.08428 6.00953 3.63328 5.84106 3.2265C5.6726 2.81972 5.37462 2.47989 4.99333 2.25974C4.61204 2.03958 4.16876 1.95139 3.73225 2.00885C3.29573 2.06631 2.89037 2.2662 2.57904 2.57753C2.26771 2.88886 2.06782 3.29422 2.01036 3.73073C1.9529 4.16725 2.04109 4.61053 2.26125 4.99182C2.48141 5.37311 2.82123 5.67109 3.22801 5.83955C3.63479 6.00801 4.08579 6.03754 4.51106 5.92355L7.37906 8.79155L1.58606 14.5845C1.21112 14.9596 1.00049 15.4682 1.00049 15.9985C1.00049 16.5289 1.21112 17.0375 1.58606 17.4125L7.37906 23.2055L4.51106 26.0735C4.08579 25.9596 3.63479 25.9891 3.22801 26.1575C2.82123 26.326 2.48141 26.624 2.26125 27.0053C2.04109 27.3866 1.9529 27.8298 2.01036 28.2664C2.06782 28.7029 2.26771 29.1082 2.57904 29.4196C2.89037 29.7309 3.29573 29.9308 3.73225 29.9883C4.16876 30.0457 4.61204 29.9575 4.99333 29.7374C5.37462 29.5172 5.6726 29.1774 5.84106 28.7706C6.00953 28.3638 6.03905 27.9128 5.92506 27.4876L8.79306 24.6196L14.5861 30.4125C14.9611 30.7875 15.4697 30.9981 16.0001 30.9981C16.5304 30.9981 17.039 30.7875 17.4141 30.4125L23.2071 24.6196L26.0751 27.4876C25.9611 27.9128 25.9906 28.3638 26.1591 28.7706C26.3275 29.1774 26.6255 29.5172 27.0068 29.7374C27.3881 29.9575 27.8314 30.0457 28.2679 29.9883C28.7044 29.9308 29.1098 29.7309 29.4211 29.4196C29.7324 29.1082 29.9323 28.7029 29.9898 28.2664C30.0472 27.8298 29.959 27.3866 29.7389 27.0053C29.5187 26.624 29.1789 26.326 28.7721 26.1575C28.3653 25.9891 27.9143 25.9596 27.4891 26.0735L24.6211 23.2055L30.4141 17.4125C30.7889 17.0378 30.9997 16.5296 31.0001 15.9995ZM23.2071 21.7925L20.4141 18.9995L19.0001 20.4135L21.7931 23.2066L16.0001 28.9995L10.2071 23.2066L13.0001 20.4135L11.5861 18.9995L8.79306 21.7925L3.00006 15.9995L8.79306 10.2065L11.5861 12.9995L13.0001 11.5856L10.2071 8.79255L16.0001 2.99955L21.7941 8.79255L19.0001 11.5856L20.4141 12.9995L23.2081 10.2065L29.0001 15.9995L23.2071 21.7925Z" fill="black"/>
</svg>
