<svg width="32" height="32" viewBox="0 0 32 32" fill="none" xmlns="http://www.w3.org/2000/svg">
<path d="M22.6952 16.0142C21.1072 10.7918 16.4336 5.21816 16.196 4.93656C16.1589 4.89593 16.1137 4.86349 16.0634 4.84128C16.013 4.81908 15.9586 4.80762 15.9036 4.80762C15.8486 4.80762 15.7942 4.81908 15.7438 4.84128C15.6935 4.86349 15.6483 4.89593 15.6112 4.93656C15.3736 5.21816 10.6992 10.791 9.1104 16.0142C8.7848 17.0854 8.5784 18.1438 8.5784 19.1366C8.5784 23.175 11.8648 26.4606 15.9032 26.4606C19.9416 26.4606 23.2264 23.175 23.2264 19.1366C23.2272 18.1438 23.0208 17.0862 22.6952 16.0142ZM15.904 25.6958C12.2872 25.6958 9.3448 22.7534 9.3448 19.1374C9.3448 18.1558 9.5632 17.095 9.912 16.015C11.3016 11.715 14.8584 7.09016 15.904 5.79016C16.9496 7.09016 20.5064 11.715 21.8944 16.015C22.2432 17.0958 22.4616 18.1558 22.4616 19.1374C22.4616 22.7534 19.52 25.6958 15.904 25.6958Z" fill="black"/>
<path d="M11.7984 16.0146C11.3984 17.0306 11.1312 18.0482 11.1312 18.9746C11.1312 20.2404 11.634 21.4542 12.529 22.3492C13.424 23.2442 14.6379 23.747 15.9036 23.747C17.1693 23.747 18.3832 23.2442 19.2782 22.3492C20.1732 21.4542 20.676 20.2404 20.676 18.9746C20.676 18.0482 20.4088 17.0306 20.0088 16.0146H11.7984Z" fill="black"/>
</svg>
