<svg width="24" height="24" viewBox="0 0 24 24" fill="none" xmlns="http://www.w3.org/2000/svg">
<path d="M17.0212 12.0104C15.8302 8.09358 12.325 3.91338 12.1468 3.70218C12.119 3.67171 12.0851 3.64737 12.0473 3.63072C12.0096 3.61407 11.9688 3.60547 11.9275 3.60547C11.8862 3.60547 11.8454 3.61407 11.8077 3.63072C11.7699 3.64737 11.736 3.67171 11.7082 3.70218C11.53 3.91338 8.02419 8.09298 6.83259 12.0104C6.58839 12.8138 6.43359 13.6076 6.43359 14.3522C6.43359 17.381 8.89839 19.8452 11.9272 19.8452C14.956 19.8452 17.4196 17.381 17.4196 14.3522C17.4202 13.6076 17.2654 12.8144 17.0212 12.0104ZM11.9278 19.2716C9.21519 19.2716 7.00839 17.0648 7.00839 14.3528C7.00839 13.6166 7.17219 12.821 7.43379 12.011C8.47599 8.78598 11.1436 5.31738 11.9278 4.34238C12.712 5.31738 15.3796 8.78598 16.4206 12.011C16.6822 12.8216 16.846 13.6166 16.846 14.3528C16.846 17.0648 14.6398 19.2716 11.9278 19.2716Z" fill="black"/>
<path d="M8.84854 12.0098C8.54854 12.7718 8.34814 13.535 8.34814 14.2298C8.34814 15.1791 8.72525 16.0895 9.3965 16.7607C10.0677 17.432 10.9782 17.8091 11.9274 17.8091C12.8767 17.8091 13.7871 17.432 14.4584 16.7607C15.1296 16.0895 15.5067 15.1791 15.5067 14.2298C15.5067 13.535 15.3063 12.7718 15.0063 12.0098H8.84854Z" fill="black"/>
</svg>
