<svg width="96" height="97" viewBox="0 0 96 97" fill="none" xmlns="http://www.w3.org/2000/svg">
<g clip-path="url(#clip0_961_193)">
<path d="M41.9999 38C41.9999 42.14 39.3119 45.5 35.9999 45.5C32.6879 45.5 29.9999 42.14 29.9999 38C29.9999 33.86 32.6879 30.5 35.9999 30.5C39.3119 30.5 41.9999 33.86 41.9999 38ZM59.9999 45.5C63.3119 45.5 65.9999 42.14 65.9999 38C65.9999 33.86 63.3119 30.5 59.9999 30.5C56.6879 30.5 53.9999 33.86 53.9999 38C53.9999 42.14 56.6879 45.5 59.9999 45.5ZM77.8799 65C77.5253 67.0981 76.4387 69.0027 74.813 70.3758C73.1874 71.7488 71.1278 72.5014 68.9999 72.5H26.9999C25.6924 72.5004 24.4005 72.2159 23.214 71.6663C22.0276 71.1167 20.9752 70.3152 20.13 69.3175C19.2848 68.3199 18.6672 67.15 18.3201 65.8894C17.9729 64.6288 17.9046 63.3077 18.1199 62.018V62C18.4746 59.9019 19.5612 57.9973 21.1868 56.6242C22.8125 55.2512 24.872 54.4986 26.9999 54.5H68.9999C70.3075 54.4996 71.5994 54.7841 72.7858 55.3337C73.9722 55.8833 75.0247 56.6848 75.8698 57.6825C76.715 58.6801 77.3327 59.85 77.6798 61.1106C78.0269 62.3712 78.0952 63.6923 77.8799 64.982V65ZM26.9999 69.5H28.4999V65H21.1859C21.5187 66.2887 22.2704 67.4302 23.323 68.2448C24.3755 69.0594 25.669 69.501 26.9999 69.5ZM68.9999 69.5C70.3309 69.501 71.6244 69.0594 72.6769 68.2448C73.7294 67.4302 74.4812 66.2887 74.8139 65H67.4999V69.5H68.9999ZM74.8139 62C74.4812 60.7113 73.7294 59.5698 72.6769 58.7552C71.6244 57.9406 70.3309 57.499 68.9999 57.5H67.4999V62H74.8139ZM26.9999 57.5C25.669 57.499 24.3755 57.9406 23.323 58.7552C22.2704 59.5698 21.5187 60.7113 21.1859 62H28.4999V57.5H26.9999ZM37.4999 69.5V65H31.4999V69.5H37.4999ZM40.4999 69.5H46.4999V65H40.4999V69.5ZM49.4999 69.5H55.4999V65H49.4999V69.5ZM58.4999 69.5H64.4999V65H58.4999V69.5ZM64.4999 57.5H58.4999V62H64.4999V57.5ZM55.4999 57.5H49.4999V62H55.4999V57.5ZM46.4999 57.5H40.4999V62H46.4999V57.5ZM37.4999 57.5H31.4999V62H37.4999V57.5Z" fill="#D9683C"/>
<path d="M48 96.5C60.7304 96.5 72.9394 91.4429 81.9411 82.4411C90.9429 73.4394 96 61.2304 96 48.5C96 35.7696 90.9429 23.5606 81.9411 14.5589C72.9394 5.55713 60.7304 0.5 48 0.5C35.2696 0.5 23.0606 5.55713 14.0589 14.5589C5.05713 23.5606 0 35.7696 0 48.5C0 61.2304 5.05713 73.4394 14.0589 82.4411C23.0606 91.4429 35.2696 96.5 48 96.5ZM48 90.5C36.8609 90.5 26.178 86.075 18.3015 78.1985C10.425 70.322 6 59.6391 6 48.5C6 37.3609 10.425 26.678 18.3015 18.8015C26.178 10.925 36.8609 6.5 48 6.5C59.1391 6.5 69.822 10.925 77.6985 18.8015C85.575 26.678 90 37.3609 90 48.5C90 59.6391 85.575 70.322 77.6985 78.1985C69.822 86.075 59.1391 90.5 48 90.5Z" fill="#D9683C"/>
</g>
<defs>
<clipPath id="clip0_961_193">
<rect width="96" height="96" fill="white" transform="translate(0 0.5)"/>
</clipPath>
</defs>
</svg>
