<svg width="120" height="120" viewBox="0 0 120 120" fill="none" xmlns="http://www.w3.org/2000/svg">
<path opacity="0.2" d="M105 60C105 68.9002 102.361 77.6005 97.4162 85.0007C92.4715 92.4009 85.4435 98.1686 77.2208 101.575C68.9981 104.981 59.9501 105.872 51.221 104.135C42.4918 102.399 34.4736 98.1132 28.1802 91.8198C21.8869 85.5264 17.601 77.5082 15.8647 68.7791C14.1283 60.0499 15.0195 51.0019 18.4254 42.7792C21.8314 34.5566 27.5992 27.5285 34.9994 22.5839C42.3996 17.6392 51.0999 15 60 15C71.9348 15 83.3807 19.7411 91.8198 28.1802C100.259 36.6193 105 48.0653 105 60Z" fill="#36AE7C"/>
<path d="M60 11.25C50.3582 11.25 40.9329 14.1091 32.916 19.4659C24.8991 24.8226 18.6507 32.4363 14.9609 41.3442C11.2711 50.2521 10.3057 60.0541 12.1867 69.5107C14.0678 78.9672 18.7108 87.6536 25.5286 94.4715C32.3464 101.289 41.0328 105.932 50.4894 107.813C59.9459 109.694 69.7479 108.729 78.6558 105.039C87.5637 101.349 95.1774 95.1009 100.534 87.084C105.891 79.0671 108.75 69.6418 108.75 60C108.736 47.0749 103.596 34.6831 94.4564 25.5436C85.317 16.4042 72.9251 11.2636 60 11.25ZM60 101.25C51.8415 101.25 43.8663 98.8307 37.0827 94.2981C30.2992 89.7655 25.0121 83.3231 21.89 75.7857C18.7679 68.2482 17.951 59.9542 19.5426 51.9525C21.1343 43.9508 25.063 36.6008 30.8319 30.8318C36.6008 25.0629 43.9508 21.1342 51.9525 19.5426C59.9543 17.951 68.2483 18.7679 75.7857 21.89C83.3232 25.0121 89.7655 30.2992 94.2981 37.0827C98.8308 43.8663 101.25 51.8415 101.25 60C101.238 70.9364 96.8877 81.4213 89.1545 89.1545C81.4213 96.8876 70.9364 101.238 60 101.25ZM37.5 50.625C37.5 49.5125 37.8299 48.4249 38.448 47.4999C39.0661 46.5749 39.9446 45.8539 40.9724 45.4282C42.0003 45.0024 43.1313 44.891 44.2224 45.1081C45.3135 45.3251 46.3158 45.8609 47.1025 46.6475C47.8892 47.4342 48.4249 48.4365 48.6419 49.5276C48.859 50.6188 48.7476 51.7498 48.3218 52.7776C47.8961 53.8054 47.1751 54.6839 46.2501 55.302C45.3251 55.9201 44.2375 56.25 43.125 56.25C41.6332 56.25 40.2024 55.6574 39.1475 54.6025C38.0927 53.5476 37.5 52.1168 37.5 50.625ZM82.5 50.625C82.5 51.7375 82.1701 52.8251 81.552 53.7501C80.934 54.6751 80.0554 55.3961 79.0276 55.8218C77.9998 56.2476 76.8688 56.359 75.7776 56.1419C74.6865 55.9249 73.6842 55.3891 72.8975 54.6025C72.1109 53.8158 71.5751 52.8135 71.3581 51.7224C71.1411 50.6312 71.2525 49.5002 71.6782 48.4724C72.1039 47.4446 72.8249 46.5661 73.7499 45.948C74.675 45.3299 75.7625 45 76.875 45C78.3669 45 79.7976 45.5926 80.8525 46.6475C81.9074 47.7024 82.5 49.1332 82.5 50.625ZM81.9938 73.125C77.1703 81.4641 69.1547 86.25 60 86.25C50.8453 86.25 42.8297 81.4687 38.0063 73.125C37.7349 72.6982 37.5528 72.2209 37.4707 71.7218C37.3886 71.2228 37.4083 70.7123 37.5286 70.221C37.649 69.7298 37.8674 69.268 38.1708 68.8634C38.4743 68.4587 38.8564 68.1197 39.2943 67.8666C39.7322 67.6135 40.2167 67.4516 40.7188 67.3906C41.2208 67.3296 41.7301 67.3708 42.2158 67.5117C42.7015 67.6526 43.1537 67.8903 43.5452 68.2105C43.9367 68.5308 44.2593 68.9269 44.4938 69.375C47.9953 75.4266 53.4985 78.75 60 78.75C66.5016 78.75 72.0047 75.4219 75.5063 69.375C75.7407 68.9269 76.0634 68.5308 76.4548 68.2105C76.8463 67.8903 77.2985 67.6526 77.7843 67.5117C78.27 67.3708 78.7792 67.3296 79.2813 67.3906C79.7833 67.4516 80.2679 67.6135 80.7058 67.8666C81.1436 68.1197 81.5258 68.4587 81.8292 68.8634C82.1326 69.268 82.3511 69.7298 82.4714 70.221C82.5917 70.7123 82.6115 71.2228 82.5294 71.7218C82.4473 72.2209 82.2651 72.6982 81.9938 73.125Z" fill="#36AE7C"/>
</svg>
