<svg width="274" height="52" viewBox="0 0 274 52" fill="none" xmlns="http://www.w3.org/2000/svg">
<path d="M20.1292 0.000846214C20.7595 0.0159645 21.3684 0.232646 21.8665 0.619114C22.3647 1.00558 22.7259 1.5415 22.8972 2.14827L32.2554 35.3296C32.5257 36.2879 33.8777 36.3056 34.1729 35.3547L40.8412 13.8765C41.0187 13.306 41.3654 12.8028 41.8352 12.4336C42.305 12.0644 42.8758 11.8466 43.4721 11.809C44.0685 11.7714 44.6622 11.9158 45.1746 12.223C45.6871 12.5303 46.0942 12.9859 46.3419 13.5296L51.1892 24.1927C51.3515 24.5497 51.7074 24.7788 52.0995 24.7788H58.4053C59.1876 24.7788 59.9379 25.0896 60.4911 25.6428C61.0443 26.196 61.3551 26.9463 61.3551 27.7286C61.3551 28.5109 61.0443 29.2612 60.4911 29.8144C59.9379 30.3676 59.1876 30.6784 58.4053 30.6784H49.556C48.9895 30.6783 48.4351 30.5152 47.9589 30.2085C47.4826 29.9017 47.1048 29.4644 46.8705 28.9486L45.2649 25.4165C44.8846 24.5798 43.6719 24.6562 43.3995 25.5339L35.8549 49.8424C35.6663 50.45 35.2862 50.9803 34.7714 51.3542C34.2566 51.7281 33.6347 51.9256 32.9985 51.9171C32.3623 51.9086 31.7459 51.6946 31.2413 51.3071C30.7367 50.9196 30.3709 50.3793 30.1985 49.7669L20.7053 16.1144C20.4379 15.1664 19.1056 15.1353 18.7942 16.0697L14.5978 28.6607C14.4021 29.2482 14.0265 29.7593 13.5242 30.1214C13.0218 30.4835 12.4183 30.6784 11.799 30.6784H2.94976C2.16744 30.6784 1.41715 30.3676 0.863965 29.8144C0.310778 29.2612 0 28.5109 0 27.7286C0 26.9463 0.310778 26.196 0.863965 25.6428C1.41715 25.0896 2.16744 24.7788 2.94976 24.7788H8.9521C9.38253 24.7788 9.76467 24.5034 9.90078 24.0951L17.2596 2.01848C17.459 1.41933 17.8454 0.899965 18.3619 0.536771C18.8785 0.173577 19.4979 -0.014274 20.1292 0.000846214Z" fill="white"/>
<path d="M73.268 10.7611H66.7549V5.0976H86.0109V10.7611H79.4979V44.7424H73.268V10.7611Z" fill="white"/>
<path d="M89.0272 5.0976H106.018V10.7611H95.2571V21.2387H103.809V26.9022H95.2571V39.0789H106.018V44.7424H89.0272V5.0976Z" fill="white"/>
<path d="M109.602 5.0976H115.832V39.0789H126.083V44.7424H109.602V5.0976Z" fill="white"/>
<path d="M129.07 5.0976H146.061V10.7611H135.3V21.2387H143.852V26.9022H135.3V39.0789H146.061V44.7424H129.07V5.0976Z" fill="white"/>
<path d="M149.645 5.0976H158.537L162.501 33.472H162.614L166.579 5.0976H175.471V44.7424H169.58V14.7256H169.467L164.936 44.7424H159.726L155.195 14.7256H155.082V44.7424H149.645V5.0976Z" fill="white"/>
<path d="M180.12 5.0976H197.11V10.7611H186.349V21.2387H194.901V26.9022H186.349V39.0789H197.11V44.7424H180.12V5.0976Z" fill="white"/>
<path d="M205.565 10.7611H199.052V5.0976H218.308V10.7611H211.795V44.7424H205.565V10.7611Z" fill="white"/>
<path d="M221.324 5.0976H230.556C233.765 5.0976 236.106 5.85274 237.578 7.36302C239.051 8.83554 239.787 11.1198 239.787 14.2159V16.6512C239.787 20.7667 238.428 23.372 235.709 24.4669V24.5802C237.22 25.0333 238.277 25.9583 238.881 27.3553C239.523 28.7523 239.844 30.6213 239.844 32.9622V39.9284C239.844 41.0611 239.882 41.9861 239.957 42.7035C240.033 43.3832 240.221 44.0628 240.523 44.7424H234.18C233.954 44.1005 233.803 43.4964 233.727 42.9301C233.652 42.3637 233.614 41.3443 233.614 39.8718V32.6224C233.614 30.8101 233.312 29.5452 232.708 28.8279C232.141 28.1105 231.141 27.7518 229.706 27.7518H227.554V44.7424H221.324V5.0976ZM229.819 22.0882C231.065 22.0882 231.99 21.7673 232.594 21.1254C233.236 20.4836 233.557 19.4075 233.557 17.8972V14.8389C233.557 13.4041 233.293 12.3658 232.764 11.724C232.274 11.0821 231.481 10.7611 230.386 10.7611H227.554V22.0882H229.819Z" fill="white"/>
<path d="M244.166 5.0976H250.396V44.7424H244.166V5.0976Z" fill="white"/>
<path d="M263.84 45.3088C260.858 45.3088 258.573 44.4592 256.988 42.7602C255.44 41.0611 254.665 38.6635 254.665 35.5675V14.2725C254.665 11.1765 255.44 8.77891 256.988 7.07985C258.573 5.38078 260.858 4.53125 263.84 4.53125C266.823 4.53125 269.089 5.38078 270.637 7.07985C272.222 8.77891 273.015 11.1765 273.015 14.2725V18.4636H267.125V13.8761C267.125 11.4219 266.087 10.1948 264.01 10.1948C261.934 10.1948 260.895 11.4219 260.895 13.8761V36.0206C260.895 38.437 261.934 39.6452 264.01 39.6452C266.087 39.6452 267.125 38.437 267.125 36.0206V29.9606H273.015V35.5675C273.015 38.6635 272.222 41.0611 270.637 42.7602C269.089 44.4592 266.823 45.3088 263.84 45.3088Z" fill="white"/>
</svg>
