<svg width="24" height="24" viewBox="0 0 24 24" fill="none" xmlns="http://www.w3.org/2000/svg">
<path d="M14.863 13.3994V4.93837C14.857 4.17834 14.5558 3.45042 14.023 2.90836C13.7318 2.6198 13.382 2.39722 12.9972 2.25574C12.6125 2.11426 12.2018 2.05718 11.793 2.08837C11.053 2.16082 10.3678 2.5102 9.87448 3.06653C9.3812 3.62286 9.11636 4.34503 9.13302 5.08837L9.14301 13.3684C8.41084 13.9183 7.85302 14.6679 7.53659 15.5272C7.22015 16.3865 7.15856 17.3189 7.35922 18.2123C7.55987 19.1058 8.01424 19.9223 8.66772 20.5637C9.3212 21.2052 10.146 21.6443 11.043 21.8284C11.3562 21.888 11.6742 21.9182 11.993 21.9184C13.2538 21.9186 14.4632 21.4186 15.3556 20.528C16.248 19.6375 16.7506 18.4291 16.753 17.1684C16.7545 16.4361 16.5843 15.7137 16.2561 15.0592C15.9278 14.4046 15.4507 13.8361 14.863 13.3994ZM14.383 20.0594C13.9487 20.4149 13.4407 20.6694 12.8959 20.8043C12.3511 20.9392 11.783 20.9512 11.233 20.8394C10.503 20.694 9.83387 20.3318 9.31293 19.8002C8.792 19.2685 8.44352 18.5922 8.31301 17.8594C8.18302 17.1721 8.24807 16.4622 8.50081 15.8101C8.75354 15.1579 9.18386 14.5895 9.74301 14.1694C9.8635 14.0803 9.96151 13.9642 10.0292 13.8306C10.0969 13.6969 10.1325 13.5492 10.133 13.3994V5.08837C10.1215 4.59968 10.2923 4.1242 10.612 3.7545C10.9318 3.3848 11.3778 3.14734 11.863 3.08837C11.9092 3.08007 11.9561 3.07671 12.003 3.07837C12.4949 3.08306 12.9652 3.28053 13.313 3.62833C13.6609 3.97614 13.8583 4.44652 13.863 4.93837V13.3994C13.8636 13.5492 13.8991 13.6969 13.9668 13.8306C14.0345 13.9642 14.1325 14.0803 14.253 14.1694C14.7075 14.5095 15.0786 14.9485 15.3383 15.4533C15.598 15.958 15.7395 16.5152 15.752 17.0827C15.7645 17.6502 15.6478 18.2131 15.4106 18.7288C15.1734 19.2445 14.822 19.6995 14.383 20.0594Z" fill="black"/>
<path d="M13.8928 17.1694C13.8928 17.6707 13.6937 18.1514 13.3393 18.5058C12.9848 18.8603 12.5041 19.0594 12.0028 19.0594C11.5016 19.0594 11.0208 18.8603 10.6664 18.5058C10.312 18.1514 10.1128 17.6707 10.1128 17.1694C10.1102 16.7561 10.2454 16.3537 10.4972 16.0258C10.7489 15.698 11.1028 15.4635 11.5028 15.3594V5.40039C11.5028 5.26778 11.5555 5.14061 11.6493 5.04684C11.743 4.95307 11.8702 4.90039 12.0028 4.90039C12.1354 4.90039 12.2626 4.95307 12.3564 5.04684C12.4502 5.14061 12.5028 5.26778 12.5028 5.40039V15.3604C12.9017 15.4662 13.2544 15.701 13.5059 16.0282C13.7573 16.3554 13.8934 16.7567 13.8928 17.1694Z" fill="black"/>
</svg>
