<svg width="24" height="24" viewBox="0 0 24 24" fill="none" xmlns="http://www.w3.org/2000/svg">
<path d="M11 22V16H14.5C14.9 16 15.25 16.15 15.55 16.45C15.85 16.75 16 17.1 16 17.5V18.5C16 18.9 15.85 19.25 15.55 19.55C15.25 19.85 14.9 20 14.5 20H12.5V22H11ZM17 22V16H18.5V18H20.5V16H22V22H20.5V19.5H18.5V22H17ZM12.5 18.5H14.5V17.5H12.5V18.5ZM9 21.95C6.96667 21.7167 5.29167 20.8417 3.975 19.325C2.65833 17.8083 2 15.9667 2 13.8C2 12.1333 2.66267 10.321 3.988 8.363C5.31333 6.405 7.31733 4.284 10 2C12.6833 4.28333 14.6877 6.40433 16.013 8.363C17.3383 10.3217 18.0007 12.134 18 13.8V14H11C10.45 14 9.97933 14.196 9.588 14.588C9.19667 14.98 9.00067 15.4507 9 16V21.95Z" fill="#0989C0"/>
</svg>
