<svg width="24" height="24" viewBox="0 0 24 24" fill="none" xmlns="http://www.w3.org/2000/svg">
<path d="M2 18V16C2.63333 16 3.10433 15.8333 3.413 15.5C3.72167 15.1667 4.36733 15 5.35 15C6.33267 15 6.97867 15.1667 7.288 15.5C7.59733 15.8333 8.05133 16 8.65 16C9.28333 16 9.75433 15.8333 10.063 15.5C10.3717 15.1667 11.0173 15 12 15C12.95 15 13.596 15.1667 13.938 15.5C14.28 15.8333 14.7507 16 15.35 16C15.9833 16 16.446 15.8333 16.738 15.5C17.03 15.1667 17.6673 15 18.65 15C19.6327 15 20.2787 15.1667 20.588 15.5C20.8973 15.8333 21.368 16 22 16V18C21.05 18 20.4043 17.8333 20.063 17.5C19.7217 17.1667 19.2507 17 18.65 17C18.0493 17 17.5953 17.1667 17.288 17.5C16.9807 17.8333 16.3347 18 15.35 18C14.4 18 13.7543 17.8333 13.413 17.5C13.0717 17.1667 12.6007 17 12 17C11.3667 17 10.896 17.1667 10.588 17.5C10.28 17.8333 9.634 18 8.65 18C7.666 18 7.02867 17.8333 6.738 17.5C6.44733 17.1667 5.98467 17 5.35 17C4.71533 17 4.24467 17.1667 3.938 17.5C3.63133 17.8333 2.98533 18 2 18ZM2 14V12C2.63333 12 3.10433 11.8333 3.413 11.5C3.72167 11.1667 4.36733 11 5.35 11C6.3 11 6.93767 11.1667 7.263 11.5C7.58833 11.8333 8.05067 12 8.65 12C9.28333 12 9.754 11.8333 10.062 11.5C10.37 11.1667 11.016 11 12 11C12.95 11 13.5917 11.1667 13.925 11.5C14.2583 11.8333 14.7167 12 15.3 12C15.9333 12 16.404 11.8333 16.712 11.5C17.02 11.1667 17.666 11 18.65 11C19.6 11 20.246 11.1667 20.588 11.5C20.93 11.8333 21.4007 12 22 12V14C21.0167 14 20.3623 13.8333 20.037 13.5C19.7117 13.1667 19.2493 13 18.65 13C18.0507 13 17.5967 13.1667 17.288 13.5C16.9793 13.8333 16.3333 14 15.35 14C14.4 14 13.7543 13.8333 13.413 13.5C13.0717 13.1667 12.6007 13 12 13C11.3667 13 10.904 13.1667 10.612 13.5C10.32 13.8333 9.68267 14 8.7 14C7.71733 14 7.06333 13.8333 6.738 13.5C6.41267 13.1667 5.95 13 5.35 13C4.75 13 4.27933 13.1667 3.938 13.5C3.59667 13.8333 2.95067 14 2 14ZM2 10V8C2.63333 8 3.10433 7.83333 3.413 7.5C3.72167 7.16667 4.36733 7 5.35 7C6.3 7 6.93767 7.16667 7.263 7.5C7.58833 7.83333 8.05067 8 8.65 8C9.28333 8 9.754 7.83333 10.062 7.5C10.37 7.16667 11.016 7 12 7C12.95 7 13.5917 7.16667 13.925 7.5C14.2583 7.83333 14.7167 8 15.3 8C15.9333 8 16.404 7.83333 16.712 7.5C17.02 7.16667 17.666 7 18.65 7C19.6 7 20.246 7.16667 20.588 7.5C20.93 7.83333 21.4007 8 22 8V10C21.0167 10 20.3623 9.83333 20.037 9.5C19.7117 9.16667 19.2493 9 18.65 9C18.0507 9 17.5967 9.16667 17.288 9.5C16.9793 9.83333 16.3333 10 15.35 10C14.4 10 13.7543 9.83333 13.413 9.5C13.0717 9.16667 12.6007 9 12 9C11.3667 9 10.904 9.16667 10.612 9.5C10.32 9.83333 9.68267 10 8.7 10C7.71733 10 7.06333 9.83333 6.738 9.5C6.41267 9.16667 5.95 9 5.35 9C4.75 9 4.27933 9.16667 3.938 9.5C3.59667 9.83333 2.95067 10 2 10Z" fill="#0989C0"/>
</svg>
