<svg width="24" height="24" viewBox="0 0 24 24" fill="none" xmlns="http://www.w3.org/2000/svg">
<path d="M7.5 15C7.78333 15 8.021 14.904 8.213 14.712C8.405 14.52 8.50067 14.2827 8.5 14C8.49933 13.7173 8.40333 13.48 8.212 13.288C8.02067 13.096 7.78333 13 7.5 13C7.21667 13 6.97933 13.096 6.788 13.288C6.59667 13.48 6.50067 13.7173 6.5 14C6.49933 14.2827 6.59533 14.5203 6.788 14.713C6.98067 14.9057 7.218 15.0013 7.5 15ZM9 12C9.28333 12 9.521 11.904 9.713 11.712C9.905 11.52 10.0007 11.2827 10 11C9.99933 10.7173 9.90333 10.48 9.712 10.288C9.52067 10.096 9.28333 10 9 10C8.71667 10 8.47933 10.096 8.288 10.288C8.09667 10.48 8.00067 10.7173 8 11C7.99933 11.2827 8.09533 11.5203 8.288 11.713C8.48067 11.9057 8.718 12.0013 9 12ZM9 18C9.28333 18 9.521 17.904 9.713 17.712C9.905 17.52 10.0007 17.2827 10 17C9.99933 16.7173 9.90333 16.48 9.712 16.288C9.52067 16.096 9.28333 16 9 16C8.71667 16 8.47933 16.096 8.288 16.288C8.09667 16.48 8.00067 16.7173 8 17C7.99933 17.2827 8.09533 17.5203 8.288 17.713C8.48067 17.9057 8.718 18.0013 9 18ZM10.5 15C10.7833 15 11.021 14.904 11.213 14.712C11.405 14.52 11.5007 14.2827 11.5 14C11.4993 13.7173 11.4033 13.48 11.212 13.288C11.0207 13.096 10.7833 13 10.5 13C10.2167 13 9.97933 13.096 9.788 13.288C9.59667 13.48 9.50067 13.7173 9.5 14C9.49933 14.2827 9.59533 14.5203 9.788 14.713C9.98067 14.9057 10.218 15.0013 10.5 15ZM10.5 9C10.7833 9 11.021 8.904 11.213 8.712C11.405 8.52 11.5007 8.28267 11.5 8C11.4993 7.71733 11.4033 7.48 11.212 7.288C11.0207 7.096 10.7833 7 10.5 7C10.2167 7 9.97933 7.096 9.788 7.288C9.59667 7.48 9.50067 7.71733 9.5 8C9.49933 8.28267 9.59533 8.52033 9.788 8.713C9.98067 8.90567 10.218 9.00133 10.5 9ZM12 12C12.2833 12 12.521 11.904 12.713 11.712C12.905 11.52 13.0007 11.2827 13 11C12.9993 10.7173 12.9033 10.48 12.712 10.288C12.5207 10.096 12.2833 10 12 10C11.7167 10 11.4793 10.096 11.288 10.288C11.0967 10.48 11.0007 10.7173 11 11C10.9993 11.2827 11.0953 11.5203 11.288 11.713C11.4807 11.9057 11.718 12.0013 12 12ZM12 18C12.2833 18 12.521 17.904 12.713 17.712C12.905 17.52 13.0007 17.2827 13 17C12.9993 16.7173 12.9033 16.48 12.712 16.288C12.5207 16.096 12.2833 16 12 16C11.7167 16 11.4793 16.096 11.288 16.288C11.0967 16.48 11.0007 16.7173 11 17C10.9993 17.2827 11.0953 17.5203 11.288 17.713C11.4807 17.9057 11.718 18.0013 12 18ZM13.5 15C13.7833 15 14.021 14.904 14.213 14.712C14.405 14.52 14.5007 14.2827 14.5 14C14.4993 13.7173 14.4033 13.48 14.212 13.288C14.0207 13.096 13.7833 13 13.5 13C13.2167 13 12.9793 13.096 12.788 13.288C12.5967 13.48 12.5007 13.7173 12.5 14C12.4993 14.2827 12.5953 14.5203 12.788 14.713C12.9807 14.9057 13.218 15.0013 13.5 15ZM13.5 9C13.7833 9 14.021 8.904 14.213 8.712C14.405 8.52 14.5007 8.28267 14.5 8C14.4993 7.71733 14.4033 7.48 14.212 7.288C14.0207 7.096 13.7833 7 13.5 7C13.2167 7 12.9793 7.096 12.788 7.288C12.5967 7.48 12.5007 7.71733 12.5 8C12.4993 8.28267 12.5953 8.52033 12.788 8.713C12.9807 8.90567 13.218 9.00133 13.5 9ZM15 12C15.2833 12 15.521 11.904 15.713 11.712C15.905 11.52 16.0007 11.2827 16 11C15.9993 10.7173 15.9033 10.48 15.712 10.288C15.5207 10.096 15.2833 10 15 10C14.7167 10 14.4793 10.096 14.288 10.288C14.0967 10.48 14.0007 10.7173 14 11C13.9993 11.2827 14.0953 11.5203 14.288 11.713C14.4807 11.9057 14.718 12.0013 15 12ZM15 18C15.2833 18 15.521 17.904 15.713 17.712C15.905 17.52 16.0007 17.2827 16 17C15.9993 16.7173 15.9033 16.48 15.712 16.288C15.5207 16.096 15.2833 16 15 16C14.7167 16 14.4793 16.096 14.288 16.288C14.0967 16.48 14.0007 16.7173 14 17C13.9993 17.2827 14.0953 17.5203 14.288 17.713C14.4807 17.9057 14.718 18.0013 15 18ZM16.5 15C16.7833 15 17.021 14.904 17.213 14.712C17.405 14.52 17.5007 14.2827 17.5 14C17.4993 13.7173 17.4033 13.48 17.212 13.288C17.0207 13.096 16.7833 13 16.5 13C16.2167 13 15.9793 13.096 15.788 13.288C15.5967 13.48 15.5007 13.7173 15.5 14C15.4993 14.2827 15.5953 14.5203 15.788 14.713C15.9807 14.9057 16.218 15.0013 16.5 15ZM12 22C9.71667 22 7.81267 21.2167 6.288 19.65C4.76333 18.0833 4.00067 16.1333 4 13.8C4 12.1333 4.66267 10.321 5.988 8.363C7.31333 6.405 9.31733 4.284 12 2C14.6833 4.28333 16.6877 6.40433 18.013 8.363C19.3383 10.3217 20.0007 12.134 20 13.8C20 16.1333 19.2377 18.0833 17.713 19.65C16.1883 21.2167 14.284 22 12 22Z" fill="#0989C0"/>
</svg>
