<svg width="101" height="36" viewBox="0 0 101 36" fill="none" xmlns="http://www.w3.org/2000/svg">
<path d="M2.33675 0.402344H12.5367C12.6427 0.402344 12.7385 0.465371 12.7805 0.562677L18.4181 13.6739L24.0558 0.562677C24.0977 0.465371 24.1935 0.402344 24.2995 0.402344H34.4995C34.736 0.402344 34.8522 0.690813 34.6855 0.858531C32.799 2.75647 31.099 4.53678 29.5579 6.15078C24.4226 11.5286 21.0504 15.117 18.4181 15.0011C15.7857 15.117 12.4137 11.5286 7.27841 6.15078C5.73722 4.53678 4.03721 2.75647 2.15074 0.858531C1.98404 0.690813 2.10028 0.402344 2.33675 0.402344Z" fill="white"/>
<path d="M2.33675 35.9733H12.5367C12.6427 35.9733 12.7385 35.9103 12.7805 35.8129L18.4181 22.7017L24.0558 35.8129C24.0977 35.9103 24.1935 35.9733 24.2995 35.9733H34.4995C34.736 35.9733 34.8522 35.6848 34.6855 35.5171C32.799 33.6192 31.099 31.8388 29.5579 30.2248C24.4226 24.847 21.0504 21.2586 18.4181 21.3745C15.7857 21.2586 12.4137 24.847 7.27841 30.2248C5.73722 31.8388 4.03721 33.6192 2.15074 35.5171C1.98404 35.6848 2.10028 35.9733 2.33675 35.9733Z" fill="white"/>
<path d="M36.3155 2.23867V12.4387C36.3155 12.5446 36.2525 12.6404 36.1552 12.6824L23.044 18.32L36.1552 23.9577C36.2525 23.9997 36.3155 24.0955 36.3155 24.2014V34.4014C36.3155 34.6379 36.0271 34.7541 35.8593 34.5874C33.9614 32.701 32.1811 31.001 30.5671 29.4598C25.1893 24.3245 21.6009 20.9523 21.7168 18.32C21.6009 15.6877 25.1893 12.3156 30.5671 7.18033C32.1811 5.63914 33.9614 3.93913 35.8593 2.05266C36.0271 1.88596 36.3155 2.0022 36.3155 2.23867Z" fill="white"/>
<path d="M0.745119 2.23867L0.745118 12.4387C0.745118 12.5446 0.808145 12.6404 0.905452 12.6824L14.0167 18.32L0.905451 23.9577C0.808145 23.9997 0.745118 24.0955 0.745118 24.2014L0.745117 34.4014C0.745117 34.6379 1.03359 34.7541 1.2013 34.5874C3.09924 32.701 4.87955 31.001 6.49355 29.4598C11.8714 24.3245 15.4598 20.9523 15.3439 18.32C15.4598 15.6877 11.8714 12.3156 6.49355 7.18033C4.87955 5.63913 3.09924 3.93913 1.20131 2.05266C1.03359 1.88596 0.745119 2.0022 0.745119 2.23867Z" fill="white"/>
<path d="M20.6525 18.1655C20.6525 19.3383 19.7018 20.289 18.529 20.289C17.3563 20.289 16.4056 19.3383 16.4056 18.1655C16.4056 16.9928 17.3563 16.0421 18.529 16.0421C19.7018 16.0421 20.6525 16.9928 20.6525 18.1655Z" fill="white"/>
<path d="M54.585 1.98828H62.0754V25.9488C62.0754 30.3709 60.6315 34.7478 52.5995 34.7478C49.6665 34.7478 43.2139 33.8003 43.2139 26.8964V21.7072H50.7043V26.3549C50.7043 27.7537 50.6592 29.6038 52.6446 29.6038C54.6301 29.6038 54.585 27.7537 54.585 26.3549V1.98828Z" fill="white"/>
<path d="M74.704 34.1161H67.5745V8.30555H74.704V34.1161ZM74.704 6.54574H67.5745V1.98828H74.704V6.54574Z" fill="white"/>
<path d="M79.627 34.1161V1.98828H90.0054L94.7885 25.3622H94.8787V1.98828H100.745V34.1161H91.1335L85.5833 7.26771H85.493V34.1161H79.627Z" fill="white"/>
</svg>
