<svg width="32" height="32" viewBox="0 0 32 32" fill="none" xmlns="http://www.w3.org/2000/svg">
<path d="M16 22.4005C15.5817 22.4023 15.1679 22.4866 14.7822 22.6485C14.3966 22.8103 14.0465 23.0466 13.7522 23.3438C13.4579 23.6409 13.2249 23.9932 13.0668 24.3804C12.9086 24.7676 12.8283 25.1822 12.8304 25.6005C12.8304 27.3669 14.2496 28.8005 16 28.8005C16.4181 28.7984 16.8317 28.7139 17.2172 28.552C17.6027 28.39 17.9526 28.1537 18.2467 27.8566C18.5409 27.5594 18.7737 27.2073 18.9318 26.8201C19.0898 26.433 19.1701 26.0186 19.168 25.6005C19.168 23.8325 17.7504 22.4005 16 22.4005ZM9.27999 18.8133L11.52 21.0757C12.1054 20.4819 12.803 20.0105 13.5723 19.6887C14.3415 19.3669 15.167 19.2012 16.0008 19.2012C16.8346 19.2012 17.6601 19.3669 18.4293 19.6887C19.1985 20.0105 19.8961 20.4819 20.4816 21.0757L22.72 18.8133C21.842 17.9228 20.7958 17.2156 19.6422 16.733C18.4886 16.2503 17.2505 16.0018 16 16.0018C14.7495 16.0018 13.5114 16.2503 12.3578 16.733C11.2041 17.2156 10.1579 17.9228 9.27999 18.8133ZM4.79999 14.2853L7.03999 16.5477C8.21058 15.3606 9.6054 14.4179 11.1434 13.7745C12.6815 13.1311 14.332 12.7998 15.9992 12.7998C17.6664 12.7998 19.3169 13.1311 20.8549 13.7745C22.393 14.4179 23.7878 15.3606 24.9584 16.5477L27.2 14.2853C25.7366 12.8013 23.9929 11.6229 22.0702 10.8186C20.1475 10.0143 18.0841 9.60013 16 9.60013C13.9158 9.60013 11.8525 10.0143 9.92977 10.8186C8.00706 11.6229 6.26337 12.8013 4.79999 14.2853ZM0.31839 9.76046L2.55839 12.0229C4.31445 10.2418 6.40698 8.82751 8.71437 7.86219C11.0218 6.89686 13.498 6.39976 15.9992 6.39976C18.5004 6.39976 20.9766 6.89686 23.284 7.86219C25.5914 8.82751 27.6839 10.2418 29.44 12.0229L31.68 9.76046C29.6313 7.68256 27.19 6.03256 24.4981 4.90636C21.8061 3.78015 18.9172 3.2002 15.9992 3.2002C13.0812 3.2002 10.1922 3.78015 7.5003 4.90636C4.80836 6.03256 2.3671 7.68256 0.31839 9.76046Z" fill="black"/>
</svg>
