<svg width="24" height="24" viewBox="0 0 24 24" fill="none" xmlns="http://www.w3.org/2000/svg">
<path d="M17.25 17.25C17.25 18.0456 16.9339 18.8087 16.3713 19.3713C15.8087 19.9339 15.0456 20.25 14.25 20.25C12.9656 20.25 11.7234 19.4128 11.2969 18.2606C11.232 18.0751 11.2425 17.8716 11.3261 17.6937C11.4097 17.5159 11.5598 17.378 11.7441 17.3097C11.9284 17.2414 12.1321 17.2481 12.3115 17.3285C12.4908 17.4088 12.6314 17.5564 12.7031 17.7394C12.9131 18.3066 13.5938 18.75 14.25 18.75C14.6478 18.75 15.0294 18.592 15.3107 18.3107C15.592 18.0294 15.75 17.6478 15.75 17.25C15.75 16.8522 15.592 16.4706 15.3107 16.1893C15.0294 15.908 14.6478 15.75 14.25 15.75H3.75C3.55109 15.75 3.36032 15.671 3.21967 15.5303C3.07902 15.3897 3 15.1989 3 15C3 14.8011 3.07902 14.6103 3.21967 14.4697C3.36032 14.329 3.55109 14.25 3.75 14.25H14.25C15.0456 14.25 15.8087 14.5661 16.3713 15.1287C16.9339 15.6913 17.25 16.4544 17.25 17.25ZM11.25 9.75C12.0456 9.75 12.8087 9.43393 13.3713 8.87132C13.9339 8.30871 14.25 7.54565 14.25 6.75C14.25 5.95435 13.9339 5.19129 13.3713 4.62868C12.8087 4.06607 12.0456 3.75 11.25 3.75C9.96562 3.75 8.72344 4.58719 8.29688 5.73938C8.23197 5.92487 8.24246 6.12844 8.3261 6.30628C8.40974 6.48412 8.55985 6.62202 8.74412 6.69032C8.92839 6.75863 9.13212 6.75187 9.31146 6.67152C9.49081 6.59116 9.63145 6.44361 9.70312 6.26062C9.91313 5.69344 10.5938 5.25 11.25 5.25C11.6478 5.25 12.0294 5.40804 12.3107 5.68934C12.592 5.97064 12.75 6.35218 12.75 6.75C12.75 7.14782 12.592 7.52936 12.3107 7.81066C12.0294 8.09196 11.6478 8.25 11.25 8.25H2.25C2.05109 8.25 1.86032 8.32902 1.71967 8.46967C1.57902 8.61032 1.5 8.80109 1.5 9C1.5 9.19891 1.57902 9.38968 1.71967 9.53033C1.86032 9.67098 2.05109 9.75 2.25 9.75H11.25ZM19.5 6.75C18.2156 6.75 16.9734 7.58719 16.5469 8.73938C16.482 8.92487 16.4925 9.12844 16.5761 9.30628C16.6597 9.48412 16.8098 9.62202 16.9941 9.69032C17.1784 9.75863 17.3821 9.75187 17.5615 9.67152C17.7408 9.59116 17.8814 9.44361 17.9531 9.26062C18.1631 8.69344 18.8438 8.25 19.5 8.25C19.8978 8.25 20.2794 8.40804 20.5607 8.68934C20.842 8.97064 21 9.35218 21 9.75C21 10.1478 20.842 10.5294 20.5607 10.8107C20.2794 11.092 19.8978 11.25 19.5 11.25H3C2.80109 11.25 2.61032 11.329 2.46967 11.4697C2.32902 11.6103 2.25 11.8011 2.25 12C2.25 12.1989 2.32902 12.3897 2.46967 12.5303C2.61032 12.671 2.80109 12.75 3 12.75H19.5C20.2956 12.75 21.0587 12.4339 21.6213 11.8713C22.1839 11.3087 22.5 10.5456 22.5 9.75C22.5 8.95435 22.1839 8.19129 21.6213 7.62868C21.0587 7.06607 20.2956 6.75 19.5 6.75Z" fill="#353535"/>
</svg>
